<mxfile host="app.diagrams.net" modified="2023-09-26T07:18:12.994Z" agent="Mozilla/5.0 (Macintosh; Intel Mac OS X 10_15_7) AppleWebKit/537.36 (KHTML, like Gecko) Chrome/116.0.0.0 Safari/537.36" etag="eg_3BdeMJMRP4MiFxXtT" version="21.2.3" type="device">
  <diagram name="Page-1" id="E_KoUC31EDdpJAnjteJq">
    <mxGraphModel dx="1967" dy="1897" grid="1" gridSize="10" guides="1" tooltips="1" connect="1" arrows="1" fold="1" page="1" pageScale="1" pageWidth="827" pageHeight="1169" math="0" shadow="0">
      <root>
        <mxCell id="0" />
        <mxCell id="1" parent="0" />
        <mxCell id="DWcXpB8DiOorCHfaxrZ_-21" value="" style="rounded=0;whiteSpace=wrap;html=1;" vertex="1" parent="1">
          <mxGeometry x="-100" y="-170" width="810" height="590" as="geometry" />
        </mxCell>
        <mxCell id="DWcXpB8DiOorCHfaxrZ_-1" value="Utilisateur" style="shape=umlActor;verticalLabelPosition=bottom;verticalAlign=top;html=1;outlineConnect=0;" vertex="1" parent="1">
          <mxGeometry x="-60" y="170" width="30" height="60" as="geometry" />
        </mxCell>
        <mxCell id="DWcXpB8DiOorCHfaxrZ_-2" value="Gerer le panier" style="ellipse;whiteSpace=wrap;html=1;" vertex="1" parent="1">
          <mxGeometry x="110" y="110" width="120" height="60" as="geometry" />
        </mxCell>
        <mxCell id="DWcXpB8DiOorCHfaxrZ_-3" value="Acheter des fruits" style="ellipse;whiteSpace=wrap;html=1;" vertex="1" parent="1">
          <mxGeometry x="330" y="10" width="120" height="60" as="geometry" />
        </mxCell>
        <mxCell id="DWcXpB8DiOorCHfaxrZ_-4" value="Retirer des fruits" style="ellipse;whiteSpace=wrap;html=1;" vertex="1" parent="1">
          <mxGeometry x="330" y="110" width="120" height="60" as="geometry" />
        </mxCell>
        <mxCell id="DWcXpB8DiOorCHfaxrZ_-6" value="Finaliser la commande" style="ellipse;whiteSpace=wrap;html=1;" vertex="1" parent="1">
          <mxGeometry x="330" y="200" width="120" height="60" as="geometry" />
        </mxCell>
        <mxCell id="DWcXpB8DiOorCHfaxrZ_-8" value="Modifier la quantité" style="ellipse;whiteSpace=wrap;html=1;" vertex="1" parent="1">
          <mxGeometry x="500" y="-40" width="120" height="60" as="geometry" />
        </mxCell>
        <mxCell id="DWcXpB8DiOorCHfaxrZ_-10" value="Boycotter une origine" style="ellipse;whiteSpace=wrap;html=1;" vertex="1" parent="1">
          <mxGeometry x="500" y="50" width="120" height="60" as="geometry" />
        </mxCell>
        <mxCell id="DWcXpB8DiOorCHfaxrZ_-12" value="" style="endArrow=none;html=1;rounded=0;entryX=0;entryY=0.5;entryDx=0;entryDy=0;exitX=1;exitY=0.5;exitDx=0;exitDy=0;" edge="1" parent="1" source="DWcXpB8DiOorCHfaxrZ_-3" target="DWcXpB8DiOorCHfaxrZ_-8">
          <mxGeometry width="50" height="50" relative="1" as="geometry">
            <mxPoint x="280" y="-40" as="sourcePoint" />
            <mxPoint x="330" y="-90" as="targetPoint" />
          </mxGeometry>
        </mxCell>
        <mxCell id="DWcXpB8DiOorCHfaxrZ_-13" value="" style="endArrow=none;html=1;rounded=0;exitX=1;exitY=0.5;exitDx=0;exitDy=0;entryX=0;entryY=0.5;entryDx=0;entryDy=0;" edge="1" parent="1" source="DWcXpB8DiOorCHfaxrZ_-3" target="DWcXpB8DiOorCHfaxrZ_-10">
          <mxGeometry width="50" height="50" relative="1" as="geometry">
            <mxPoint x="400" y="-50" as="sourcePoint" />
            <mxPoint x="610" y="-90" as="targetPoint" />
          </mxGeometry>
        </mxCell>
        <mxCell id="DWcXpB8DiOorCHfaxrZ_-15" value="" style="endArrow=none;html=1;rounded=0;entryX=1;entryY=0.5;entryDx=0;entryDy=0;exitX=0;exitY=0.5;exitDx=0;exitDy=0;" edge="1" parent="1" source="DWcXpB8DiOorCHfaxrZ_-4" target="DWcXpB8DiOorCHfaxrZ_-2">
          <mxGeometry width="50" height="50" relative="1" as="geometry">
            <mxPoint x="230" y="80" as="sourcePoint" />
            <mxPoint x="280" y="30" as="targetPoint" />
          </mxGeometry>
        </mxCell>
        <mxCell id="DWcXpB8DiOorCHfaxrZ_-16" value="" style="endArrow=none;html=1;rounded=0;exitX=0;exitY=0.5;exitDx=0;exitDy=0;entryX=1;entryY=0.5;entryDx=0;entryDy=0;" edge="1" parent="1" source="DWcXpB8DiOorCHfaxrZ_-3" target="DWcXpB8DiOorCHfaxrZ_-2">
          <mxGeometry width="50" height="50" relative="1" as="geometry">
            <mxPoint x="340" y="90" as="sourcePoint" />
            <mxPoint x="260" y="140" as="targetPoint" />
          </mxGeometry>
        </mxCell>
        <mxCell id="DWcXpB8DiOorCHfaxrZ_-18" value="" style="endArrow=none;html=1;rounded=0;entryX=1;entryY=0.5;entryDx=0;entryDy=0;exitX=0;exitY=0.5;exitDx=0;exitDy=0;" edge="1" parent="1" source="DWcXpB8DiOorCHfaxrZ_-6" target="DWcXpB8DiOorCHfaxrZ_-2">
          <mxGeometry width="50" height="50" relative="1" as="geometry">
            <mxPoint x="330" y="280" as="sourcePoint" />
            <mxPoint x="270" y="150" as="targetPoint" />
          </mxGeometry>
        </mxCell>
        <mxCell id="DWcXpB8DiOorCHfaxrZ_-22" value="&lt;font style=&quot;font-size: 18px;&quot;&gt;&lt;b&gt;&lt;u&gt;IHM de Panier&lt;/u&gt;&lt;/b&gt;&lt;/font&gt;" style="text;html=1;strokeColor=none;fillColor=none;align=center;verticalAlign=middle;whiteSpace=wrap;rounded=0;" vertex="1" parent="1">
          <mxGeometry x="-60" y="-130" width="160" height="50" as="geometry" />
        </mxCell>
        <mxCell id="DWcXpB8DiOorCHfaxrZ_-24" value="Créer des fruits" style="ellipse;whiteSpace=wrap;html=1;" vertex="1" parent="1">
          <mxGeometry x="110" y="280" width="120" height="60" as="geometry" />
        </mxCell>
        <mxCell id="DWcXpB8DiOorCHfaxrZ_-27" value="" style="endArrow=none;html=1;rounded=0;entryX=0;entryY=0.5;entryDx=0;entryDy=0;exitX=0.5;exitY=0.5;exitDx=0;exitDy=0;exitPerimeter=0;" edge="1" parent="1" source="DWcXpB8DiOorCHfaxrZ_-1" target="DWcXpB8DiOorCHfaxrZ_-24">
          <mxGeometry width="50" height="50" relative="1" as="geometry">
            <mxPoint x="20" y="140" as="sourcePoint" />
            <mxPoint x="120" y="150" as="targetPoint" />
          </mxGeometry>
        </mxCell>
        <mxCell id="DWcXpB8DiOorCHfaxrZ_-28" value="" style="endArrow=none;html=1;rounded=0;entryX=0;entryY=0.5;entryDx=0;entryDy=0;exitX=0.5;exitY=0.5;exitDx=0;exitDy=0;exitPerimeter=0;" edge="1" parent="1" source="DWcXpB8DiOorCHfaxrZ_-1" target="DWcXpB8DiOorCHfaxrZ_-2">
          <mxGeometry width="50" height="50" relative="1" as="geometry">
            <mxPoint x="15" y="150" as="sourcePoint" />
            <mxPoint x="120" y="240" as="targetPoint" />
          </mxGeometry>
        </mxCell>
      </root>
    </mxGraphModel>
  </diagram>
</mxfile>
